<?xml version="1.0" encoding="UTF-8" standalone="no"?>
<!DOCTYPE svg PUBLIC "-//W3C//DTD SVG 1.1//EN"
 "http://www.w3.org/Graphics/SVG/1.1/DTD/svg11.dtd">
<!-- Generated by graphviz version 2.40.1 (20161225.0304)
 -->
<!-- Title: dependencies Pages: 1 -->
<svg width="936pt" height="284pt"
 viewBox="0.00 0.00 936.00 284.00" xmlns="http://www.w3.org/2000/svg" xmlns:xlink="http://www.w3.org/1999/xlink">
<g id="graph0" class="graph" transform="scale(1 1) rotate(0) translate(4 280)">
<title>dependencies</title>
<polygon fill="#ffffff" stroke="transparent" points="-4,4 -4,-280 932,-280 932,4 -4,4"/>
<text text-anchor="start" x="443.0091" y="-42.4" font-family="sans-serif" font-weight="bold" font-size="14.00" fill="#000000">Legend</text>
<polygon fill="#ffffb3" stroke="transparent" points="230,-10 230,-30 250,-30 250,-10 230,-10"/>
<text text-anchor="start" x="253.629" y="-15.4" font-family="sans-serif" font-size="14.00" fill="#000000"> &#160;Declarations</text>
<polygon fill="#8dd3c7" stroke="transparent" points="343,-10 343,-30 363,-30 363,-10 343,-10"/>
<text text-anchor="start" x="366.7251" y="-15.4" font-family="sans-serif" font-size="14.00" fill="#000000"> &#160;Module</text>
<polygon fill="#80b1d3" stroke="transparent" points="429,-10 429,-30 449,-30 449,-10 429,-10"/>
<text text-anchor="start" x="452.7812" y="-15.4" font-family="sans-serif" font-size="14.00" fill="#000000"> &#160;Bootstrap</text>
<polygon fill="#fdb462" stroke="transparent" points="526,-10 526,-30 546,-30 546,-10 526,-10"/>
<text text-anchor="start" x="549.6732" y="-15.4" font-family="sans-serif" font-size="14.00" fill="#000000"> &#160;Providers</text>
<polygon fill="#fb8072" stroke="transparent" points="622,-10 622,-30 642,-30 642,-10 622,-10"/>
<text text-anchor="start" x="645.7258" y="-15.4" font-family="sans-serif" font-size="14.00" fill="#000000"> &#160;Exports</text>
<g id="clust1" class="cluster">
<title>cluster_VisitsModule</title>
<polygon fill="none" stroke="#000000" stroke-dasharray="1,5" points="8,-70 8,-268 920,-268 920,-70 8,-70"/>
</g>
<g id="clust2" class="cluster">
<title>cluster_VisitsModule_declarations</title>
<polygon fill="none" stroke="#000000" points="466,-78 466,-130 912,-130 912,-78 466,-78"/>
</g>
<g id="clust6" class="cluster">
<title>cluster_VisitsModule_imports</title>
<polygon fill="none" stroke="#000000" points="158,-78 158,-130 458,-130 458,-78 158,-78"/>
</g>
<g id="clust7" class="cluster">
<title>cluster_VisitsModule_exports</title>
<polygon fill="none" stroke="#000000" points="234,-208 234,-260 692,-260 692,-208 234,-208"/>
</g>
<g id="clust9" class="cluster">
<title>cluster_VisitsModule_providers</title>
<polygon fill="none" stroke="#000000" points="16,-78 16,-130 150,-130 150,-78 16,-78"/>
</g>
<!-- VisitAddComponent -->
<g id="node1" class="node">
<title>VisitAddComponent</title>
<polygon fill="#ffffb3" stroke="#000000" points="904.1624,-122 771.8376,-122 771.8376,-86 904.1624,-86 904.1624,-122"/>
<text text-anchor="middle" x="838" y="-99.8" font-family="Times,serif" font-size="14.00" fill="#000000">VisitAddComponent</text>
</g>
<!-- VisitsModule -->
<g id="node4" class="node">
<title>VisitsModule</title>
<polygon fill="#8dd3c7" stroke="#000000" points="508.2177,-187 505.2177,-191 484.2177,-191 481.2177,-187 415.7823,-187 415.7823,-151 508.2177,-151 508.2177,-187"/>
<text text-anchor="middle" x="462" y="-164.8" font-family="Times,serif" font-size="14.00" fill="#000000">VisitsModule</text>
</g>
<!-- VisitAddComponent&#45;&gt;VisitsModule -->
<g id="edge1" class="edge">
<title>VisitAddComponent&#45;&gt;VisitsModule</title>
<path fill="none" stroke="#000000" d="M838,-122.1061C838,-141.3391 838,-169 838,-169 838,-169 518.4821,-169 518.4821,-169"/>
<polygon fill="#000000" stroke="#000000" points="518.4821,-165.5001 508.4821,-169 518.4821,-172.5001 518.4821,-165.5001"/>
</g>
<!-- VisitEditComponent -->
<g id="node2" class="node">
<title>VisitEditComponent</title>
<polygon fill="#ffffb3" stroke="#000000" points="753.8892,-122 622.1108,-122 622.1108,-86 753.8892,-86 753.8892,-122"/>
<text text-anchor="middle" x="688" y="-99.8" font-family="Times,serif" font-size="14.00" fill="#000000">VisitEditComponent</text>
</g>
<!-- VisitEditComponent&#45;&gt;VisitsModule -->
<g id="edge2" class="edge">
<title>VisitEditComponent&#45;&gt;VisitsModule</title>
<path fill="none" stroke="#000000" d="M653.0682,-122.027C653.0682,-138.3976 653.0682,-160 653.0682,-160 653.0682,-160 518.2523,-160 518.2523,-160"/>
<polygon fill="#000000" stroke="#000000" points="518.2523,-156.5001 508.2523,-160 518.2522,-163.5001 518.2523,-156.5001"/>
</g>
<!-- VisitListComponent -->
<g id="node3" class="node">
<title>VisitListComponent</title>
<polygon fill="#ffffb3" stroke="#000000" points="604.3342,-122 473.6658,-122 473.6658,-86 604.3342,-86 604.3342,-122"/>
<text text-anchor="middle" x="539" y="-99.8" font-family="Times,serif" font-size="14.00" fill="#000000">VisitListComponent</text>
</g>
<!-- VisitListComponent&#45;&gt;VisitsModule -->
<g id="edge3" class="edge">
<title>VisitListComponent&#45;&gt;VisitsModule</title>
<path fill="none" stroke="#000000" d="M490.9709,-122.1061C490.9709,-122.1061 490.9709,-140.991 490.9709,-140.991"/>
<polygon fill="#000000" stroke="#000000" points="487.471,-140.9909 490.9709,-150.991 494.471,-140.991 487.471,-140.9909"/>
</g>
<!-- VisitAddComponent  -->
<g id="node7" class="node">
<title>VisitAddComponent </title>
<polygon fill="#fb8072" stroke="#000000" points="684.1621,-252 547.8379,-252 547.8379,-216 684.1621,-216 684.1621,-252"/>
<text text-anchor="middle" x="616" y="-229.8" font-family="Times,serif" font-size="14.00" fill="#000000">VisitAddComponent </text>
</g>
<!-- VisitsModule&#45;&gt;VisitAddComponent  -->
<g id="edge6" class="edge">
<title>VisitsModule&#45;&gt;VisitAddComponent </title>
<path fill="none" stroke="#000000" stroke-dasharray="5,2" d="M508.3856,-178C539.959,-178 576.043,-178 576.043,-178 576.043,-178 576.043,-205.973 576.043,-205.973"/>
<polygon fill="#000000" stroke="#000000" points="572.543,-205.973 576.043,-215.973 579.543,-205.973 572.543,-205.973"/>
</g>
<!-- VisitEditComponent  -->
<g id="node8" class="node">
<title>VisitEditComponent </title>
<polygon fill="#fb8072" stroke="#000000" points="529.8898,-252 394.1102,-252 394.1102,-216 529.8898,-216 529.8898,-252"/>
<text text-anchor="middle" x="462" y="-229.8" font-family="Times,serif" font-size="14.00" fill="#000000">VisitEditComponent </text>
</g>
<!-- VisitsModule&#45;&gt;VisitEditComponent  -->
<g id="edge7" class="edge">
<title>VisitsModule&#45;&gt;VisitEditComponent </title>
<path fill="none" stroke="#000000" stroke-dasharray="5,2" d="M462,-187.1061C462,-187.1061 462,-205.991 462,-205.991"/>
<polygon fill="#000000" stroke="#000000" points="458.5001,-205.9909 462,-215.991 465.5001,-205.991 458.5001,-205.9909"/>
</g>
<!-- VisitListComponent  -->
<g id="node9" class="node">
<title>VisitListComponent </title>
<polygon fill="#fb8072" stroke="#000000" points="375.8339,-252 242.1661,-252 242.1661,-216 375.8339,-216 375.8339,-252"/>
<text text-anchor="middle" x="309" y="-229.8" font-family="Times,serif" font-size="14.00" fill="#000000">VisitListComponent </text>
</g>
<!-- VisitsModule&#45;&gt;VisitListComponent  -->
<g id="edge8" class="edge">
<title>VisitsModule&#45;&gt;VisitListComponent </title>
<path fill="none" stroke="#000000" stroke-dasharray="5,2" d="M415.6955,-178C384.4776,-178 348.9584,-178 348.9584,-178 348.9584,-178 348.9584,-205.973 348.9584,-205.973"/>
<polygon fill="#000000" stroke="#000000" points="345.4585,-205.973 348.9584,-215.973 352.4585,-205.973 345.4585,-205.973"/>
</g>
<!-- PetsRoutingModule -->
<g id="node5" class="node">
<title>PetsRoutingModule</title>
<polygon fill="#8dd3c7" stroke="#000000" points="450,-122 447,-126 426,-126 423,-122 322,-122 322,-86 450,-86 450,-122"/>
<text text-anchor="middle" x="386" y="-99.8" font-family="Times,serif" font-size="14.00" fill="#000000">PetsRoutingModule</text>
</g>
<!-- PetsRoutingModule&#45;&gt;VisitsModule -->
<g id="edge4" class="edge">
<title>PetsRoutingModule&#45;&gt;VisitsModule</title>
<path fill="none" stroke="#000000" d="M432.9457,-122.1061C432.9457,-122.1061 432.9457,-140.991 432.9457,-140.991"/>
<polygon fill="#000000" stroke="#000000" points="429.4457,-140.9909 432.9457,-150.991 436.4457,-140.991 429.4457,-140.9909"/>
</g>
<!-- VisitsRoutingModule -->
<g id="node6" class="node">
<title>VisitsRoutingModule</title>
<polygon fill="#8dd3c7" stroke="#000000" points="303.8356,-122 300.8356,-126 279.8356,-126 276.8356,-122 166.1644,-122 166.1644,-86 303.8356,-86 303.8356,-122"/>
<text text-anchor="middle" x="235" y="-99.8" font-family="Times,serif" font-size="14.00" fill="#000000">VisitsRoutingModule</text>
</g>
<!-- VisitsRoutingModule&#45;&gt;VisitsModule -->
<g id="edge5" class="edge">
<title>VisitsRoutingModule&#45;&gt;VisitsModule</title>
<path fill="none" stroke="#000000" d="M272.8754,-122.027C272.8754,-138.3976 272.8754,-160 272.8754,-160 272.8754,-160 405.7349,-160 405.7349,-160"/>
<polygon fill="#000000" stroke="#000000" points="405.7349,-163.5001 415.7349,-160 405.7349,-156.5001 405.7349,-163.5001"/>
</g>
<!-- VisitService -->
<g id="node10" class="node">
<title>VisitService</title>
<ellipse fill="#fdb462" stroke="#000000" cx="83" cy="-104" rx="58.5405" ry="18"/>
<text text-anchor="middle" x="83" y="-99.8" font-family="Times,serif" font-size="14.00" fill="#000000">VisitService</text>
</g>
<!-- VisitService&#45;&gt;VisitsModule -->
<g id="edge9" class="edge">
<title>VisitService&#45;&gt;VisitsModule</title>
<path fill="none" stroke="#000000" d="M83,-122.1061C83,-141.3391 83,-169 83,-169 83,-169 405.5272,-169 405.5272,-169"/>
<polygon fill="#000000" stroke="#000000" points="405.5272,-172.5001 415.5272,-169 405.5271,-165.5001 405.5272,-172.5001"/>
</g>
</g>
</svg>
