<?xml version="1.0" encoding="UTF-8" standalone="no"?>
<!DOCTYPE svg PUBLIC "-//W3C//DTD SVG 1.1//EN"
 "http://www.w3.org/Graphics/SVG/1.1/DTD/svg11.dtd">
<!-- Generated by graphviz version 2.40.1 (20161225.0304)
 -->
<!-- Title: dependencies Pages: 1 -->
<svg width="876pt" height="284pt"
 viewBox="0.00 0.00 876.00 284.00" xmlns="http://www.w3.org/2000/svg" xmlns:xlink="http://www.w3.org/1999/xlink">
<g id="graph0" class="graph" transform="scale(1 1) rotate(0) translate(4 280)">
<title>dependencies</title>
<polygon fill="#ffffff" stroke="transparent" points="-4,4 -4,-280 872,-280 872,4 -4,4"/>
<text text-anchor="start" x="413.0091" y="-42.4" font-family="sans-serif" font-weight="bold" font-size="14.00" fill="#000000">Legend</text>
<polygon fill="#ffffb3" stroke="transparent" points="200,-10 200,-30 220,-30 220,-10 200,-10"/>
<text text-anchor="start" x="223.629" y="-15.4" font-family="sans-serif" font-size="14.00" fill="#000000"> &#160;Declarations</text>
<polygon fill="#8dd3c7" stroke="transparent" points="313,-10 313,-30 333,-30 333,-10 313,-10"/>
<text text-anchor="start" x="336.7251" y="-15.4" font-family="sans-serif" font-size="14.00" fill="#000000"> &#160;Module</text>
<polygon fill="#80b1d3" stroke="transparent" points="399,-10 399,-30 419,-30 419,-10 399,-10"/>
<text text-anchor="start" x="422.7812" y="-15.4" font-family="sans-serif" font-size="14.00" fill="#000000"> &#160;Bootstrap</text>
<polygon fill="#fdb462" stroke="transparent" points="496,-10 496,-30 516,-30 516,-10 496,-10"/>
<text text-anchor="start" x="519.6732" y="-15.4" font-family="sans-serif" font-size="14.00" fill="#000000"> &#160;Providers</text>
<polygon fill="#fb8072" stroke="transparent" points="592,-10 592,-30 612,-30 612,-10 592,-10"/>
<text text-anchor="start" x="615.7258" y="-15.4" font-family="sans-serif" font-size="14.00" fill="#000000"> &#160;Exports</text>
<g id="clust1" class="cluster">
<title>cluster_PetTypesModule</title>
<polygon fill="none" stroke="#000000" stroke-dasharray="1,5" points="8,-70 8,-268 860,-268 860,-70 8,-70"/>
</g>
<g id="clust2" class="cluster">
<title>cluster_PetTypesModule_declarations</title>
<polygon fill="none" stroke="#000000" points="360,-78 360,-130 852,-130 852,-78 360,-78"/>
</g>
<g id="clust6" class="cluster">
<title>cluster_PetTypesModule_imports</title>
<polygon fill="none" stroke="#000000" points="184,-78 184,-130 352,-130 352,-78 184,-78"/>
</g>
<g id="clust7" class="cluster">
<title>cluster_PetTypesModule_exports</title>
<polygon fill="none" stroke="#000000" points="359,-208 359,-260 523,-260 523,-208 359,-208"/>
</g>
<g id="clust9" class="cluster">
<title>cluster_PetTypesModule_providers</title>
<polygon fill="none" stroke="#000000" points="16,-78 16,-130 176,-130 176,-78 16,-78"/>
</g>
<!-- PettypeAddComponent -->
<g id="node1" class="node">
<title>PettypeAddComponent</title>
<polygon fill="#ffffb3" stroke="#000000" points="843.9326,-122 696.0674,-122 696.0674,-86 843.9326,-86 843.9326,-122"/>
<text text-anchor="middle" x="770" y="-99.8" font-family="Times,serif" font-size="14.00" fill="#000000">PettypeAddComponent</text>
</g>
<!-- PetTypesModule -->
<g id="node4" class="node">
<title>PetTypesModule</title>
<polygon fill="#8dd3c7" stroke="#000000" points="496.6499,-187 493.6499,-191 472.6499,-191 469.6499,-187 385.3501,-187 385.3501,-151 496.6499,-151 496.6499,-187"/>
<text text-anchor="middle" x="441" y="-164.8" font-family="Times,serif" font-size="14.00" fill="#000000">PetTypesModule</text>
</g>
<!-- PettypeAddComponent&#45;&gt;PetTypesModule -->
<g id="edge1" class="edge">
<title>PettypeAddComponent&#45;&gt;PetTypesModule</title>
<path fill="none" stroke="#000000" d="M770,-122.2843C770,-143.3211 770,-175 770,-175 770,-175 506.8104,-175 506.8104,-175"/>
<polygon fill="#000000" stroke="#000000" points="506.8104,-171.5001 496.8104,-175 506.8103,-178.5001 506.8104,-171.5001"/>
</g>
<!-- PettypeEditComponent -->
<g id="node2" class="node">
<title>PettypeEditComponent</title>
<polygon fill="#ffffb3" stroke="#000000" points="678.1596,-122 531.8404,-122 531.8404,-86 678.1596,-86 678.1596,-122"/>
<text text-anchor="middle" x="605" y="-99.8" font-family="Times,serif" font-size="14.00" fill="#000000">PettypeEditComponent</text>
</g>
<!-- PettypeEditComponent&#45;&gt;PetTypesModule -->
<g id="edge2" class="edge">
<title>PettypeEditComponent&#45;&gt;PetTypesModule</title>
<path fill="none" stroke="#000000" d="M605,-122.0225C605,-139.3734 605,-163 605,-163 605,-163 506.9808,-163 506.9808,-163"/>
<polygon fill="#000000" stroke="#000000" points="506.9808,-159.5001 496.9808,-163 506.9808,-166.5001 506.9808,-159.5001"/>
</g>
<!-- PettypeListComponent -->
<g id="node3" class="node">
<title>PettypeListComponent</title>
<polygon fill="#ffffb3" stroke="#000000" points="513.6038,-122 368.3962,-122 368.3962,-86 513.6038,-86 513.6038,-122"/>
<text text-anchor="middle" x="441" y="-99.8" font-family="Times,serif" font-size="14.00" fill="#000000">PettypeListComponent</text>
</g>
<!-- PettypeListComponent&#45;&gt;PetTypesModule -->
<g id="edge3" class="edge">
<title>PettypeListComponent&#45;&gt;PetTypesModule</title>
<path fill="none" stroke="#000000" d="M441,-122.1061C441,-122.1061 441,-140.991 441,-140.991"/>
<polygon fill="#000000" stroke="#000000" points="437.5001,-140.9909 441,-150.991 444.5001,-140.991 437.5001,-140.9909"/>
</g>
<!-- PettypeListComponent  -->
<g id="node6" class="node">
<title>PettypeListComponent </title>
<polygon fill="#fb8072" stroke="#000000" points="515.1043,-252 366.8957,-252 366.8957,-216 515.1043,-216 515.1043,-252"/>
<text text-anchor="middle" x="441" y="-229.8" font-family="Times,serif" font-size="14.00" fill="#000000">PettypeListComponent </text>
</g>
<!-- PetTypesModule&#45;&gt;PettypeListComponent  -->
<g id="edge5" class="edge">
<title>PetTypesModule&#45;&gt;PettypeListComponent </title>
<path fill="none" stroke="#000000" stroke-dasharray="5,2" d="M441,-187.1061C441,-187.1061 441,-205.991 441,-205.991"/>
<polygon fill="#000000" stroke="#000000" points="437.5001,-205.9909 441,-215.991 444.5001,-205.991 437.5001,-205.9909"/>
</g>
<!-- PettypesRoutingModule -->
<g id="node5" class="node">
<title>PettypesRoutingModule</title>
<polygon fill="#8dd3c7" stroke="#000000" points="344.1052,-122 341.1052,-126 320.1052,-126 317.1052,-122 191.8948,-122 191.8948,-86 344.1052,-86 344.1052,-122"/>
<text text-anchor="middle" x="268" y="-99.8" font-family="Times,serif" font-size="14.00" fill="#000000">PettypesRoutingModule</text>
</g>
<!-- PettypesRoutingModule&#45;&gt;PetTypesModule -->
<g id="edge4" class="edge">
<title>PettypesRoutingModule&#45;&gt;PetTypesModule</title>
<path fill="none" stroke="#000000" d="M268,-122.0225C268,-139.3734 268,-163 268,-163 268,-163 375.3094,-163 375.3094,-163"/>
<polygon fill="#000000" stroke="#000000" points="375.3095,-166.5001 385.3094,-163 375.3094,-159.5001 375.3095,-166.5001"/>
</g>
<!-- PetTypeService -->
<g id="node7" class="node">
<title>PetTypeService</title>
<ellipse fill="#fdb462" stroke="#000000" cx="96" cy="-104" rx="72.3477" ry="18"/>
<text text-anchor="middle" x="96" y="-99.8" font-family="Times,serif" font-size="14.00" fill="#000000">PetTypeService</text>
</g>
<!-- PetTypeService&#45;&gt;PetTypesModule -->
<g id="edge6" class="edge">
<title>PetTypeService&#45;&gt;PetTypesModule</title>
<path fill="none" stroke="#000000" d="M96,-122.2843C96,-143.3211 96,-175 96,-175 96,-175 375.1864,-175 375.1864,-175"/>
<polygon fill="#000000" stroke="#000000" points="375.1864,-178.5001 385.1864,-175 375.1863,-171.5001 375.1864,-178.5001"/>
</g>
</g>
</svg>
