<?xml version="1.0" encoding="UTF-8" standalone="no"?>
<!DOCTYPE svg PUBLIC "-//W3C//DTD SVG 1.1//EN"
 "http://www.w3.org/Graphics/SVG/1.1/DTD/svg11.dtd">
<!-- Generated by graphviz version 2.40.1 (20161225.0304)
 -->
<!-- Title: dependencies Pages: 1 -->
<svg width="849pt" height="284pt"
 viewBox="0.00 0.00 849.00 284.00" xmlns="http://www.w3.org/2000/svg" xmlns:xlink="http://www.w3.org/1999/xlink">
<g id="graph0" class="graph" transform="scale(1 1) rotate(0) translate(4 280)">
<title>dependencies</title>
<polygon fill="#ffffff" stroke="transparent" points="-4,4 -4,-280 845,-280 845,4 -4,4"/>
<text text-anchor="start" x="399.5091" y="-42.4" font-family="sans-serif" font-weight="bold" font-size="14.00" fill="#000000">Legend</text>
<polygon fill="#ffffb3" stroke="transparent" points="186.5,-10 186.5,-30 206.5,-30 206.5,-10 186.5,-10"/>
<text text-anchor="start" x="210.129" y="-15.4" font-family="sans-serif" font-size="14.00" fill="#000000"> &#160;Declarations</text>
<polygon fill="#8dd3c7" stroke="transparent" points="299.5,-10 299.5,-30 319.5,-30 319.5,-10 299.5,-10"/>
<text text-anchor="start" x="323.2251" y="-15.4" font-family="sans-serif" font-size="14.00" fill="#000000"> &#160;Module</text>
<polygon fill="#80b1d3" stroke="transparent" points="385.5,-10 385.5,-30 405.5,-30 405.5,-10 385.5,-10"/>
<text text-anchor="start" x="409.2812" y="-15.4" font-family="sans-serif" font-size="14.00" fill="#000000"> &#160;Bootstrap</text>
<polygon fill="#fdb462" stroke="transparent" points="482.5,-10 482.5,-30 502.5,-30 502.5,-10 482.5,-10"/>
<text text-anchor="start" x="506.1732" y="-15.4" font-family="sans-serif" font-size="14.00" fill="#000000"> &#160;Providers</text>
<polygon fill="#fb8072" stroke="transparent" points="578.5,-10 578.5,-30 598.5,-30 598.5,-10 578.5,-10"/>
<text text-anchor="start" x="602.2258" y="-15.4" font-family="sans-serif" font-size="14.00" fill="#000000"> &#160;Exports</text>
<g id="clust1" class="cluster">
<title>cluster_PetsModule</title>
<polygon fill="none" stroke="#000000" stroke-dasharray="1,5" points="8,-70 8,-268 833,-268 833,-70 8,-70"/>
</g>
<g id="clust2" class="cluster">
<title>cluster_PetsModule_declarations</title>
<polygon fill="none" stroke="#000000" points="406,-78 406,-130 825,-130 825,-78 406,-78"/>
</g>
<g id="clust6" class="cluster">
<title>cluster_PetsModule_imports</title>
<polygon fill="none" stroke="#000000" points="144,-78 144,-130 398,-130 398,-78 144,-78"/>
</g>
<g id="clust7" class="cluster">
<title>cluster_PetsModule_exports</title>
<polygon fill="none" stroke="#000000" points="187,-208 187,-260 615,-260 615,-208 187,-208"/>
</g>
<g id="clust9" class="cluster">
<title>cluster_PetsModule_providers</title>
<polygon fill="none" stroke="#000000" points="16,-78 16,-130 136,-130 136,-78 16,-78"/>
</g>
<!-- PetAddComponent -->
<g id="node1" class="node">
<title>PetAddComponent</title>
<polygon fill="#ffffb3" stroke="#000000" points="816.8272,-122 693.1728,-122 693.1728,-86 816.8272,-86 816.8272,-122"/>
<text text-anchor="middle" x="755" y="-99.8" font-family="Times,serif" font-size="14.00" fill="#000000">PetAddComponent</text>
</g>
<!-- PetsModule -->
<g id="node4" class="node">
<title>PetsModule</title>
<polygon fill="#8dd3c7" stroke="#000000" points="441.3823,-187 438.3823,-191 417.3823,-191 414.3823,-187 358.6177,-187 358.6177,-151 441.3823,-151 441.3823,-187"/>
<text text-anchor="middle" x="400" y="-164.8" font-family="Times,serif" font-size="14.00" fill="#000000">PetsModule</text>
</g>
<!-- PetAddComponent&#45;&gt;PetsModule -->
<g id="edge1" class="edge">
<title>PetAddComponent&#45;&gt;PetsModule</title>
<path fill="none" stroke="#000000" d="M755,-122.1061C755,-141.3391 755,-169 755,-169 755,-169 451.4178,-169 451.4178,-169"/>
<polygon fill="#000000" stroke="#000000" points="451.4178,-165.5001 441.4178,-169 451.4178,-172.5001 451.4178,-165.5001"/>
</g>
<!-- PetEditComponent -->
<g id="node2" class="node">
<title>PetEditComponent</title>
<polygon fill="#ffffb3" stroke="#000000" points="675.0548,-122 552.9452,-122 552.9452,-86 675.0548,-86 675.0548,-122"/>
<text text-anchor="middle" x="614" y="-99.8" font-family="Times,serif" font-size="14.00" fill="#000000">PetEditComponent</text>
</g>
<!-- PetEditComponent&#45;&gt;PetsModule -->
<g id="edge2" class="edge">
<title>PetEditComponent&#45;&gt;PetsModule</title>
<path fill="none" stroke="#000000" d="M580.0682,-122.027C580.0682,-138.3976 580.0682,-160 580.0682,-160 580.0682,-160 451.7639,-160 451.7639,-160"/>
<polygon fill="#000000" stroke="#000000" points="451.7639,-156.5001 441.7639,-160 451.7638,-163.5001 451.7639,-156.5001"/>
</g>
<!-- PetListComponent -->
<g id="node3" class="node">
<title>PetListComponent</title>
<polygon fill="#ffffb3" stroke="#000000" points="534.4986,-122 413.5014,-122 413.5014,-86 534.4986,-86 534.4986,-122"/>
<text text-anchor="middle" x="474" y="-99.8" font-family="Times,serif" font-size="14.00" fill="#000000">PetListComponent</text>
</g>
<!-- PetListComponent&#45;&gt;PetsModule -->
<g id="edge3" class="edge">
<title>PetListComponent&#45;&gt;PetsModule</title>
<path fill="none" stroke="#000000" d="M427.4709,-122.1061C427.4709,-122.1061 427.4709,-140.991 427.4709,-140.991"/>
<polygon fill="#000000" stroke="#000000" points="423.971,-140.9909 427.4709,-150.991 430.971,-140.991 423.971,-140.9909"/>
</g>
<!-- PetAddComponent  -->
<g id="node7" class="node">
<title>PetAddComponent </title>
<polygon fill="#fb8072" stroke="#000000" points="607.3269,-252 480.6731,-252 480.6731,-216 607.3269,-216 607.3269,-252"/>
<text text-anchor="middle" x="544" y="-229.8" font-family="Times,serif" font-size="14.00" fill="#000000">PetAddComponent </text>
</g>
<!-- PetsModule&#45;&gt;PetAddComponent  -->
<g id="edge6" class="edge">
<title>PetsModule&#45;&gt;PetAddComponent </title>
<path fill="none" stroke="#000000" stroke-dasharray="5,2" d="M441.5789,-178C471.8415,-178 507.543,-178 507.543,-178 507.543,-178 507.543,-205.973 507.543,-205.973"/>
<polygon fill="#000000" stroke="#000000" points="504.043,-205.973 507.543,-215.973 511.043,-205.973 504.043,-205.973"/>
</g>
<!-- PetEditComponent  -->
<g id="node8" class="node">
<title>PetEditComponent </title>
<polygon fill="#fb8072" stroke="#000000" points="463.054,-252 336.946,-252 336.946,-216 463.054,-216 463.054,-252"/>
<text text-anchor="middle" x="400" y="-229.8" font-family="Times,serif" font-size="14.00" fill="#000000">PetEditComponent </text>
</g>
<!-- PetsModule&#45;&gt;PetEditComponent  -->
<g id="edge7" class="edge">
<title>PetsModule&#45;&gt;PetEditComponent </title>
<path fill="none" stroke="#000000" stroke-dasharray="5,2" d="M400,-187.1061C400,-187.1061 400,-205.991 400,-205.991"/>
<polygon fill="#000000" stroke="#000000" points="396.5001,-205.9909 400,-215.991 403.5001,-205.991 396.5001,-205.9909"/>
</g>
<!-- PetListComponent  -->
<g id="node9" class="node">
<title>PetListComponent </title>
<polygon fill="#fb8072" stroke="#000000" points="319.4996,-252 194.5004,-252 194.5004,-216 319.4996,-216 319.4996,-252"/>
<text text-anchor="middle" x="257" y="-229.8" font-family="Times,serif" font-size="14.00" fill="#000000">PetListComponent </text>
</g>
<!-- PetsModule&#45;&gt;PetListComponent  -->
<g id="edge8" class="edge">
<title>PetsModule&#45;&gt;PetListComponent </title>
<path fill="none" stroke="#000000" stroke-dasharray="5,2" d="M358.3379,-178C327.4284,-178 290.6246,-178 290.6246,-178 290.6246,-178 290.6246,-205.973 290.6246,-205.973"/>
<polygon fill="#000000" stroke="#000000" points="287.1247,-205.973 290.6246,-215.973 294.1247,-205.973 287.1247,-205.973"/>
</g>
<!-- PetsRoutingModule -->
<g id="node5" class="node">
<title>PetsRoutingModule</title>
<polygon fill="#8dd3c7" stroke="#000000" points="390,-122 387,-126 366,-126 363,-122 262,-122 262,-86 390,-86 390,-122"/>
<text text-anchor="middle" x="326" y="-99.8" font-family="Times,serif" font-size="14.00" fill="#000000">PetsRoutingModule</text>
</g>
<!-- PetsRoutingModule&#45;&gt;PetsModule -->
<g id="edge4" class="edge">
<title>PetsRoutingModule&#45;&gt;PetsModule</title>
<path fill="none" stroke="#000000" d="M374.2795,-122.1061C374.2795,-122.1061 374.2795,-140.991 374.2795,-140.991"/>
<polygon fill="#000000" stroke="#000000" points="370.7795,-140.9909 374.2795,-150.991 377.7795,-140.991 370.7795,-140.9909"/>
</g>
<!-- VisitsModule -->
<g id="node6" class="node">
<title>VisitsModule</title>
<polygon fill="#8dd3c7" stroke="#000000" points="244.2177,-122 241.2177,-126 220.2177,-126 217.2177,-122 151.7823,-122 151.7823,-86 244.2177,-86 244.2177,-122"/>
<text text-anchor="middle" x="198" y="-99.8" font-family="Times,serif" font-size="14.00" fill="#000000">VisitsModule</text>
</g>
<!-- VisitsModule&#45;&gt;PetsModule -->
<g id="edge5" class="edge">
<title>VisitsModule&#45;&gt;PetsModule</title>
<path fill="none" stroke="#000000" d="M219.4297,-122.027C219.4297,-138.3976 219.4297,-160 219.4297,-160 219.4297,-160 348.5735,-160 348.5735,-160"/>
<polygon fill="#000000" stroke="#000000" points="348.5736,-163.5001 358.5735,-160 348.5735,-156.5001 348.5736,-163.5001"/>
</g>
<!-- PetService -->
<g id="node10" class="node">
<title>PetService</title>
<ellipse fill="#fdb462" stroke="#000000" cx="76" cy="-104" rx="52.1617" ry="18"/>
<text text-anchor="middle" x="76" y="-99.8" font-family="Times,serif" font-size="14.00" fill="#000000">PetService</text>
</g>
<!-- PetService&#45;&gt;PetsModule -->
<g id="edge9" class="edge">
<title>PetService&#45;&gt;PetsModule</title>
<path fill="none" stroke="#000000" d="M76,-122.1061C76,-141.3391 76,-169 76,-169 76,-169 348.306,-169 348.306,-169"/>
<polygon fill="#000000" stroke="#000000" points="348.306,-172.5001 358.306,-169 348.3059,-165.5001 348.306,-172.5001"/>
</g>
</g>
</svg>
