<?xml version="1.0" encoding="UTF-8" standalone="no"?>
<!DOCTYPE svg PUBLIC "-//W3C//DTD SVG 1.1//EN"
 "http://www.w3.org/Graphics/SVG/1.1/DTD/svg11.dtd">
<!-- Generated by graphviz version 2.40.1 (20161225.0304)
 -->
<!-- Title: dependencies Pages: 1 -->
<svg width="928pt" height="284pt"
 viewBox="0.00 0.00 928.00 284.00" xmlns="http://www.w3.org/2000/svg" xmlns:xlink="http://www.w3.org/1999/xlink">
<g id="graph0" class="graph" transform="scale(1 1) rotate(0) translate(4 280)">
<title>dependencies</title>
<polygon fill="#ffffff" stroke="transparent" points="-4,4 -4,-280 924,-280 924,4 -4,4"/>
<text text-anchor="start" x="439.0091" y="-42.4" font-family="sans-serif" font-weight="bold" font-size="14.00" fill="#000000">Legend</text>
<polygon fill="#ffffb3" stroke="transparent" points="226,-10 226,-30 246,-30 246,-10 226,-10"/>
<text text-anchor="start" x="249.629" y="-15.4" font-family="sans-serif" font-size="14.00" fill="#000000"> &#160;Declarations</text>
<polygon fill="#8dd3c7" stroke="transparent" points="339,-10 339,-30 359,-30 359,-10 339,-10"/>
<text text-anchor="start" x="362.7251" y="-15.4" font-family="sans-serif" font-size="14.00" fill="#000000"> &#160;Module</text>
<polygon fill="#80b1d3" stroke="transparent" points="425,-10 425,-30 445,-30 445,-10 425,-10"/>
<text text-anchor="start" x="448.7812" y="-15.4" font-family="sans-serif" font-size="14.00" fill="#000000"> &#160;Bootstrap</text>
<polygon fill="#fdb462" stroke="transparent" points="522,-10 522,-30 542,-30 542,-10 522,-10"/>
<text text-anchor="start" x="545.6732" y="-15.4" font-family="sans-serif" font-size="14.00" fill="#000000"> &#160;Providers</text>
<polygon fill="#fb8072" stroke="transparent" points="618,-10 618,-30 638,-30 638,-10 618,-10"/>
<text text-anchor="start" x="641.7258" y="-15.4" font-family="sans-serif" font-size="14.00" fill="#000000"> &#160;Exports</text>
<g id="clust1" class="cluster">
<title>cluster_SpecialtiesModule</title>
<polygon fill="none" stroke="#000000" stroke-dasharray="1,5" points="8,-70 8,-268 912,-268 912,-70 8,-70"/>
</g>
<g id="clust2" class="cluster">
<title>cluster_SpecialtiesModule_declarations</title>
<polygon fill="none" stroke="#000000" points="382,-78 382,-130 904,-130 904,-78 382,-78"/>
</g>
<g id="clust6" class="cluster">
<title>cluster_SpecialtiesModule_imports</title>
<polygon fill="none" stroke="#000000" points="192,-78 192,-130 374,-130 374,-78 192,-78"/>
</g>
<g id="clust7" class="cluster">
<title>cluster_SpecialtiesModule_exports</title>
<polygon fill="none" stroke="#000000" points="381,-208 381,-260 555,-260 555,-208 381,-208"/>
</g>
<g id="clust9" class="cluster">
<title>cluster_SpecialtiesModule_providers</title>
<polygon fill="none" stroke="#000000" points="16,-78 16,-130 184,-130 184,-78 16,-78"/>
</g>
<!-- SpecialtyAddComponent -->
<g id="node1" class="node">
<title>SpecialtyAddComponent</title>
<polygon fill="#ffffb3" stroke="#000000" points="895.5379,-122 738.4621,-122 738.4621,-86 895.5379,-86 895.5379,-122"/>
<text text-anchor="middle" x="817" y="-99.8" font-family="Times,serif" font-size="14.00" fill="#000000">SpecialtyAddComponent</text>
</g>
<!-- SpecialtiesModule -->
<g id="node4" class="node">
<title>SpecialtiesModule</title>
<polygon fill="#8dd3c7" stroke="#000000" points="528.198,-187 525.198,-191 504.198,-191 501.198,-187 407.802,-187 407.802,-151 528.198,-151 528.198,-187"/>
<text text-anchor="middle" x="468" y="-164.8" font-family="Times,serif" font-size="14.00" fill="#000000">SpecialtiesModule</text>
</g>
<!-- SpecialtyAddComponent&#45;&gt;SpecialtiesModule -->
<g id="edge1" class="edge">
<title>SpecialtyAddComponent&#45;&gt;SpecialtiesModule</title>
<path fill="none" stroke="#000000" d="M817,-122.2843C817,-143.3211 817,-175 817,-175 817,-175 538.3927,-175 538.3927,-175"/>
<polygon fill="#000000" stroke="#000000" points="538.3928,-171.5001 528.3927,-175 538.3927,-178.5001 538.3928,-171.5001"/>
</g>
<!-- SpecialtyEditComponent -->
<g id="node2" class="node">
<title>SpecialtyEditComponent</title>
<polygon fill="#ffffb3" stroke="#000000" points="720.2646,-122 563.7354,-122 563.7354,-86 720.2646,-86 720.2646,-122"/>
<text text-anchor="middle" x="642" y="-99.8" font-family="Times,serif" font-size="14.00" fill="#000000">SpecialtyEditComponent</text>
</g>
<!-- SpecialtyEditComponent&#45;&gt;SpecialtiesModule -->
<g id="edge2" class="edge">
<title>SpecialtyEditComponent&#45;&gt;SpecialtiesModule</title>
<path fill="none" stroke="#000000" d="M642,-122.0225C642,-139.3734 642,-163 642,-163 642,-163 538.3684,-163 538.3684,-163"/>
<polygon fill="#000000" stroke="#000000" points="538.3685,-159.5001 528.3684,-163 538.3684,-166.5001 538.3685,-159.5001"/>
</g>
<!-- SpecialtyListComponent -->
<g id="node3" class="node">
<title>SpecialtyListComponent</title>
<polygon fill="#ffffb3" stroke="#000000" points="545.7091,-122 390.2909,-122 390.2909,-86 545.7091,-86 545.7091,-122"/>
<text text-anchor="middle" x="468" y="-99.8" font-family="Times,serif" font-size="14.00" fill="#000000">SpecialtyListComponent</text>
</g>
<!-- SpecialtyListComponent&#45;&gt;SpecialtiesModule -->
<g id="edge3" class="edge">
<title>SpecialtyListComponent&#45;&gt;SpecialtiesModule</title>
<path fill="none" stroke="#000000" d="M468,-122.1061C468,-122.1061 468,-140.991 468,-140.991"/>
<polygon fill="#000000" stroke="#000000" points="464.5001,-140.9909 468,-150.991 471.5001,-140.991 464.5001,-140.9909"/>
</g>
<!-- SpecialtyListComponent  -->
<g id="node6" class="node">
<title>SpecialtyListComponent </title>
<polygon fill="#fb8072" stroke="#000000" points="547.2093,-252 388.7907,-252 388.7907,-216 547.2093,-216 547.2093,-252"/>
<text text-anchor="middle" x="468" y="-229.8" font-family="Times,serif" font-size="14.00" fill="#000000">SpecialtyListComponent </text>
</g>
<!-- SpecialtiesModule&#45;&gt;SpecialtyListComponent  -->
<g id="edge5" class="edge">
<title>SpecialtiesModule&#45;&gt;SpecialtyListComponent </title>
<path fill="none" stroke="#000000" stroke-dasharray="5,2" d="M468,-187.1061C468,-187.1061 468,-205.991 468,-205.991"/>
<polygon fill="#000000" stroke="#000000" points="464.5001,-205.9909 468,-215.991 471.5001,-205.991 464.5001,-205.9909"/>
</g>
<!-- SpecialtiesRoutingModule -->
<g id="node5" class="node">
<title>SpecialtiesRoutingModule</title>
<polygon fill="#8dd3c7" stroke="#000000" points="365.8159,-122 362.8159,-126 341.8159,-126 338.8159,-122 200.1841,-122 200.1841,-86 365.8159,-86 365.8159,-122"/>
<text text-anchor="middle" x="283" y="-99.8" font-family="Times,serif" font-size="14.00" fill="#000000">SpecialtiesRoutingModule</text>
</g>
<!-- SpecialtiesRoutingModule&#45;&gt;SpecialtiesModule -->
<g id="edge4" class="edge">
<title>SpecialtiesRoutingModule&#45;&gt;SpecialtiesModule</title>
<path fill="none" stroke="#000000" d="M283,-122.0225C283,-139.3734 283,-163 283,-163 283,-163 397.6801,-163 397.6801,-163"/>
<polygon fill="#000000" stroke="#000000" points="397.6801,-166.5001 407.6801,-163 397.68,-159.5001 397.6801,-166.5001"/>
</g>
<!-- SpecialtyService -->
<g id="node7" class="node">
<title>SpecialtyService</title>
<ellipse fill="#fdb462" stroke="#000000" cx="100" cy="-104" rx="75.8566" ry="18"/>
<text text-anchor="middle" x="100" y="-99.8" font-family="Times,serif" font-size="14.00" fill="#000000">SpecialtyService</text>
</g>
<!-- SpecialtyService&#45;&gt;SpecialtiesModule -->
<g id="edge6" class="edge">
<title>SpecialtyService&#45;&gt;SpecialtiesModule</title>
<path fill="none" stroke="#000000" d="M100,-122.2843C100,-143.3211 100,-175 100,-175 100,-175 397.6444,-175 397.6444,-175"/>
<polygon fill="#000000" stroke="#000000" points="397.6444,-178.5001 407.6444,-175 397.6443,-171.5001 397.6444,-178.5001"/>
</g>
</g>
</svg>
