<?xml version="1.0" encoding="UTF-8" standalone="no"?>
<!DOCTYPE svg PUBLIC "-//W3C//DTD SVG 1.1//EN"
 "http://www.w3.org/Graphics/SVG/1.1/DTD/svg11.dtd">
<!-- Generated by graphviz version 2.40.1 (20161225.0304)
 -->
<!-- Title: dependencies Pages: 1 -->
<svg width="1308pt" height="284pt"
 viewBox="0.00 0.00 1308.00 284.00" xmlns="http://www.w3.org/2000/svg" xmlns:xlink="http://www.w3.org/1999/xlink">
<g id="graph0" class="graph" transform="scale(1 1) rotate(0) translate(4 280)">
<title>dependencies</title>
<polygon fill="#ffffff" stroke="transparent" points="-4,4 -4,-280 1304,-280 1304,4 -4,4"/>
<text text-anchor="start" x="629.0091" y="-42.4" font-family="sans-serif" font-weight="bold" font-size="14.00" fill="#000000">Legend</text>
<polygon fill="#ffffb3" stroke="transparent" points="416,-10 416,-30 436,-30 436,-10 416,-10"/>
<text text-anchor="start" x="439.629" y="-15.4" font-family="sans-serif" font-size="14.00" fill="#000000"> &#160;Declarations</text>
<polygon fill="#8dd3c7" stroke="transparent" points="529,-10 529,-30 549,-30 549,-10 529,-10"/>
<text text-anchor="start" x="552.7251" y="-15.4" font-family="sans-serif" font-size="14.00" fill="#000000"> &#160;Module</text>
<polygon fill="#80b1d3" stroke="transparent" points="615,-10 615,-30 635,-30 635,-10 615,-10"/>
<text text-anchor="start" x="638.7812" y="-15.4" font-family="sans-serif" font-size="14.00" fill="#000000"> &#160;Bootstrap</text>
<polygon fill="#fdb462" stroke="transparent" points="712,-10 712,-30 732,-30 732,-10 712,-10"/>
<text text-anchor="start" x="735.6732" y="-15.4" font-family="sans-serif" font-size="14.00" fill="#000000"> &#160;Providers</text>
<polygon fill="#fb8072" stroke="transparent" points="808,-10 808,-30 828,-30 828,-10 808,-10"/>
<text text-anchor="start" x="831.7258" y="-15.4" font-family="sans-serif" font-size="14.00" fill="#000000"> &#160;Exports</text>
<g id="clust1" class="cluster">
<title>cluster_AppModule</title>
<polygon fill="none" stroke="#000000" stroke-dasharray="1,5" points="8,-70 8,-268 1292,-268 1292,-70 8,-70"/>
</g>
<g id="clust2" class="cluster">
<title>cluster_AppModule_declarations</title>
<polygon fill="none" stroke="#000000" points="1162,-78 1162,-130 1284,-130 1284,-78 1162,-78"/>
</g>
<g id="clust4" class="cluster">
<title>cluster_AppModule_imports</title>
<polygon fill="none" stroke="#000000" points="200,-78 200,-130 1154,-130 1154,-78 200,-78"/>
</g>
<g id="clust6" class="cluster">
<title>cluster_AppModule_bootstrap</title>
<polygon fill="none" stroke="#000000" points="597,-208 597,-260 721,-260 721,-208 597,-208"/>
</g>
<g id="clust7" class="cluster">
<title>cluster_AppModule_providers</title>
<polygon fill="none" stroke="#000000" points="16,-78 16,-130 192,-130 192,-78 16,-78"/>
</g>
<!-- AppComponent -->
<g id="node1" class="node">
<title>AppComponent</title>
<polygon fill="#ffffb3" stroke="#000000" points="1275.9399,-122 1170.0601,-122 1170.0601,-86 1275.9399,-86 1275.9399,-122"/>
<text text-anchor="middle" x="1223" y="-99.8" font-family="Times,serif" font-size="14.00" fill="#000000">AppComponent</text>
</g>
<!-- AppModule -->
<g id="node2" class="node">
<title>AppModule</title>
<polygon fill="#8dd3c7" stroke="#000000" points="700.6571,-187 697.6571,-191 676.6571,-191 673.6571,-187 617.3429,-187 617.3429,-151 700.6571,-151 700.6571,-187"/>
<text text-anchor="middle" x="659" y="-164.8" font-family="Times,serif" font-size="14.00" fill="#000000">AppModule</text>
</g>
<!-- AppComponent&#45;&gt;AppModule -->
<g id="edge1" class="edge">
<title>AppComponent&#45;&gt;AppModule</title>
<path fill="none" stroke="#000000" d="M1223,-122.0109C1223,-144.4852 1223,-180 1223,-180 1223,-180 710.9309,-180 710.9309,-180"/>
<polygon fill="#000000" stroke="#000000" points="710.9309,-176.5001 700.9309,-180 710.9309,-183.5001 710.9309,-176.5001"/>
</g>
<!-- AppComponent  -->
<g id="node11" class="node">
<title>AppComponent </title>
<polygon fill="#80b1d3" stroke="#000000" points="713.439,-252 604.561,-252 604.561,-216 713.439,-216 713.439,-252"/>
<text text-anchor="middle" x="659" y="-229.8" font-family="Times,serif" font-size="14.00" fill="#000000">AppComponent </text>
</g>
<!-- AppModule&#45;&gt;AppComponent  -->
<g id="edge10" class="edge">
<title>AppModule&#45;&gt;AppComponent </title>
<path fill="none" stroke="#000000" stroke-dasharray="1,5" d="M659,-187.1061C659,-187.1061 659,-205.991 659,-205.991"/>
<polygon fill="#000000" stroke="#000000" points="655.5001,-205.9909 659,-215.991 662.5001,-205.991 655.5001,-205.9909"/>
</g>
<!-- AppRoutingModule -->
<g id="node3" class="node">
<title>AppRoutingModule</title>
<polygon fill="#8dd3c7" stroke="#000000" points="1146.2744,-122 1143.2744,-126 1122.2744,-126 1119.2744,-122 1017.7256,-122 1017.7256,-86 1146.2744,-86 1146.2744,-122"/>
<text text-anchor="middle" x="1082" y="-99.8" font-family="Times,serif" font-size="14.00" fill="#000000">AppRoutingModule</text>
</g>
<!-- AppRoutingModule&#45;&gt;AppModule -->
<g id="edge2" class="edge">
<title>AppRoutingModule&#45;&gt;AppModule</title>
<path fill="none" stroke="#000000" d="M1082,-122.1289C1082,-142.5724 1082,-173 1082,-173 1082,-173 710.7165,-173 710.7165,-173"/>
<polygon fill="#000000" stroke="#000000" points="710.7166,-169.5001 700.7165,-173 710.7165,-176.5001 710.7166,-169.5001"/>
</g>
<!-- OwnersModule -->
<g id="node4" class="node">
<title>OwnersModule</title>
<polygon fill="#8dd3c7" stroke="#000000" points="999.5828,-122 996.5828,-126 975.5828,-126 972.5828,-122 896.4172,-122 896.4172,-86 999.5828,-86 999.5828,-122"/>
<text text-anchor="middle" x="948" y="-99.8" font-family="Times,serif" font-size="14.00" fill="#000000">OwnersModule</text>
</g>
<!-- OwnersModule&#45;&gt;AppModule -->
<g id="edge3" class="edge">
<title>OwnersModule&#45;&gt;AppModule</title>
<path fill="none" stroke="#000000" d="M948,-122.2667C948,-140.5552 948,-166 948,-166 948,-166 710.7144,-166 710.7144,-166"/>
<polygon fill="#000000" stroke="#000000" points="710.7145,-162.5001 700.7144,-166 710.7144,-169.5001 710.7145,-162.5001"/>
</g>
<!-- PartsModule -->
<g id="node5" class="node">
<title>PartsModule</title>
<polygon fill="#8dd3c7" stroke="#000000" points="878.544,-122 875.544,-126 854.544,-126 851.544,-122 791.456,-122 791.456,-86 878.544,-86 878.544,-122"/>
<text text-anchor="middle" x="835" y="-99.8" font-family="Times,serif" font-size="14.00" fill="#000000">PartsModule</text>
</g>
<!-- PartsModule&#45;&gt;AppModule -->
<g id="edge4" class="edge">
<title>PartsModule&#45;&gt;AppModule</title>
<path fill="none" stroke="#000000" d="M835,-122.0091C835,-138.0494 835,-159 835,-159 835,-159 710.7095,-159 710.7095,-159"/>
<polygon fill="#000000" stroke="#000000" points="710.7096,-155.5001 700.7095,-159 710.7095,-162.5001 710.7096,-155.5001"/>
</g>
<!-- PetTypesModule -->
<g id="node6" class="node">
<title>PetTypesModule</title>
<polygon fill="#8dd3c7" stroke="#000000" points="772.6499,-122 769.6499,-126 748.6499,-126 745.6499,-122 661.3501,-122 661.3501,-86 772.6499,-86 772.6499,-122"/>
<text text-anchor="middle" x="717" y="-99.8" font-family="Times,serif" font-size="14.00" fill="#000000">PetTypesModule</text>
</g>
<!-- PetTypesModule&#45;&gt;AppModule -->
<g id="edge5" class="edge">
<title>PetTypesModule&#45;&gt;AppModule</title>
<path fill="none" stroke="#000000" d="M681.0018,-122.1061C681.0018,-122.1061 681.0018,-140.991 681.0018,-140.991"/>
<polygon fill="#000000" stroke="#000000" points="677.5018,-140.9909 681.0018,-150.991 684.5018,-140.991 677.5018,-140.9909"/>
</g>
<!-- PetsModule -->
<g id="node7" class="node">
<title>PetsModule</title>
<polygon fill="#8dd3c7" stroke="#000000" points="643.3823,-122 640.3823,-126 619.3823,-126 616.3823,-122 560.6177,-122 560.6177,-86 643.3823,-86 643.3823,-122"/>
<text text-anchor="middle" x="602" y="-99.8" font-family="Times,serif" font-size="14.00" fill="#000000">PetsModule</text>
</g>
<!-- PetsModule&#45;&gt;AppModule -->
<g id="edge6" class="edge">
<title>PetsModule&#45;&gt;AppModule</title>
<path fill="none" stroke="#000000" d="M630.3065,-122.1061C630.3065,-122.1061 630.3065,-140.991 630.3065,-140.991"/>
<polygon fill="#000000" stroke="#000000" points="626.8065,-140.9909 630.3065,-150.991 633.8065,-140.991 626.8065,-140.9909"/>
</g>
<!-- SpecialtiesModule -->
<g id="node8" class="node">
<title>SpecialtiesModule</title>
<polygon fill="#8dd3c7" stroke="#000000" points="542.198,-122 539.198,-126 518.198,-126 515.198,-122 421.802,-122 421.802,-86 542.198,-86 542.198,-122"/>
<text text-anchor="middle" x="482" y="-99.8" font-family="Times,serif" font-size="14.00" fill="#000000">SpecialtiesModule</text>
</g>
<!-- SpecialtiesModule&#45;&gt;AppModule -->
<g id="edge7" class="edge">
<title>SpecialtiesModule&#45;&gt;AppModule</title>
<path fill="none" stroke="#000000" d="M482,-122.0091C482,-138.0494 482,-159 482,-159 482,-159 607.0535,-159 607.0535,-159"/>
<polygon fill="#000000" stroke="#000000" points="607.0535,-162.5001 617.0535,-159 607.0534,-155.5001 607.0535,-162.5001"/>
</g>
<!-- VetsModule -->
<g id="node9" class="node">
<title>VetsModule</title>
<polygon fill="#8dd3c7" stroke="#000000" points="403.7065,-122 400.7065,-126 379.7065,-126 376.7065,-122 318.2935,-122 318.2935,-86 403.7065,-86 403.7065,-122"/>
<text text-anchor="middle" x="361" y="-99.8" font-family="Times,serif" font-size="14.00" fill="#000000">VetsModule</text>
</g>
<!-- VetsModule&#45;&gt;AppModule -->
<g id="edge8" class="edge">
<title>VetsModule&#45;&gt;AppModule</title>
<path fill="none" stroke="#000000" d="M361,-122.2667C361,-140.5552 361,-166 361,-166 361,-166 607.2506,-166 607.2506,-166"/>
<polygon fill="#000000" stroke="#000000" points="607.2506,-169.5001 617.2506,-166 607.2506,-162.5001 607.2506,-169.5001"/>
</g>
<!-- VisitsModule -->
<g id="node10" class="node">
<title>VisitsModule</title>
<polygon fill="#8dd3c7" stroke="#000000" points="300.2177,-122 297.2177,-126 276.2177,-126 273.2177,-122 207.7823,-122 207.7823,-86 300.2177,-86 300.2177,-122"/>
<text text-anchor="middle" x="254" y="-99.8" font-family="Times,serif" font-size="14.00" fill="#000000">VisitsModule</text>
</g>
<!-- VisitsModule&#45;&gt;AppModule -->
<g id="edge9" class="edge">
<title>VisitsModule&#45;&gt;AppModule</title>
<path fill="none" stroke="#000000" d="M254,-122.1289C254,-142.5724 254,-173 254,-173 254,-173 607.1833,-173 607.1833,-173"/>
<polygon fill="#000000" stroke="#000000" points="607.1833,-176.5001 617.1833,-173 607.1833,-169.5001 607.1833,-176.5001"/>
</g>
<!-- HttpErrorHandler -->
<g id="node12" class="node">
<title>HttpErrorHandler</title>
<ellipse fill="#fdb462" stroke="#000000" cx="104" cy="-104" rx="79.8527" ry="18"/>
<text text-anchor="middle" x="104" y="-99.8" font-family="Times,serif" font-size="14.00" fill="#000000">HttpErrorHandler</text>
</g>
<!-- HttpErrorHandler&#45;&gt;AppModule -->
<g id="edge11" class="edge">
<title>HttpErrorHandler&#45;&gt;AppModule</title>
<path fill="none" stroke="#000000" d="M104,-122.0109C104,-144.4852 104,-180 104,-180 104,-180 607.2848,-180 607.2848,-180"/>
<polygon fill="#000000" stroke="#000000" points="607.2848,-183.5001 617.2848,-180 607.2848,-176.5001 607.2848,-183.5001"/>
</g>
</g>
</svg>
