<?xml version="1.0" encoding="UTF-8" standalone="no"?>
<!DOCTYPE svg PUBLIC "-//W3C//DTD SVG 1.1//EN"
 "http://www.w3.org/Graphics/SVG/1.1/DTD/svg11.dtd">
<!-- Generated by graphviz version 2.40.1 (20161225.0304)
 -->
<!-- Title: dependencies Pages: 1 -->
<svg width="1121pt" height="211pt"
 viewBox="0.00 0.00 1121.00 211.00" xmlns="http://www.w3.org/2000/svg" xmlns:xlink="http://www.w3.org/1999/xlink">
<g id="graph0" class="graph" transform="scale(1 1) rotate(0) translate(4 207)">
<title>dependencies</title>
<polygon fill="#ffffff" stroke="transparent" points="-4,4 -4,-207 1117,-207 1117,4 -4,4"/>
<text text-anchor="start" x="535.5091" y="-42.4" font-family="sans-serif" font-weight="bold" font-size="14.00" fill="#000000">Legend</text>
<polygon fill="#ffffb3" stroke="transparent" points="322.5,-10 322.5,-30 342.5,-30 342.5,-10 322.5,-10"/>
<text text-anchor="start" x="346.129" y="-15.4" font-family="sans-serif" font-size="14.00" fill="#000000"> &#160;Declarations</text>
<polygon fill="#8dd3c7" stroke="transparent" points="435.5,-10 435.5,-30 455.5,-30 455.5,-10 435.5,-10"/>
<text text-anchor="start" x="459.2251" y="-15.4" font-family="sans-serif" font-size="14.00" fill="#000000"> &#160;Module</text>
<polygon fill="#80b1d3" stroke="transparent" points="521.5,-10 521.5,-30 541.5,-30 541.5,-10 521.5,-10"/>
<text text-anchor="start" x="545.2812" y="-15.4" font-family="sans-serif" font-size="14.00" fill="#000000"> &#160;Bootstrap</text>
<polygon fill="#fdb462" stroke="transparent" points="618.5,-10 618.5,-30 638.5,-30 638.5,-10 618.5,-10"/>
<text text-anchor="start" x="642.1732" y="-15.4" font-family="sans-serif" font-size="14.00" fill="#000000"> &#160;Providers</text>
<polygon fill="#fb8072" stroke="transparent" points="714.5,-10 714.5,-30 734.5,-30 734.5,-10 714.5,-10"/>
<text text-anchor="start" x="738.2258" y="-15.4" font-family="sans-serif" font-size="14.00" fill="#000000"> &#160;Exports</text>
<g id="clust1" class="cluster">
<title>cluster_OwnersModule</title>
<polygon fill="none" stroke="#000000" stroke-dasharray="1,5" points="8,-70 8,-195 1105,-195 1105,-70 8,-70"/>
</g>
<g id="clust2" class="cluster">
<title>cluster_OwnersModule_declarations</title>
<polygon fill="none" stroke="#000000" points="445,-78 445,-130 1097,-130 1097,-78 445,-78"/>
</g>
<g id="clust7" class="cluster">
<title>cluster_OwnersModule_imports</title>
<polygon fill="none" stroke="#000000" points="172,-78 172,-130 437,-130 437,-78 172,-78"/>
</g>
<g id="clust10" class="cluster">
<title>cluster_OwnersModule_providers</title>
<polygon fill="none" stroke="#000000" points="16,-78 16,-130 164,-130 164,-78 16,-78"/>
</g>
<!-- OwnerAddComponent -->
<g id="node1" class="node">
<title>OwnerAddComponent</title>
<polygon fill="#ffffb3" stroke="#000000" points="1088.5282,-122 945.4718,-122 945.4718,-86 1088.5282,-86 1088.5282,-122"/>
<text text-anchor="middle" x="1017" y="-99.8" font-family="Times,serif" font-size="14.00" fill="#000000">OwnerAddComponent</text>
</g>
<!-- OwnersModule -->
<g id="node5" class="node">
<title>OwnersModule</title>
<polygon fill="#8dd3c7" stroke="#000000" points="575.5828,-187 572.5828,-191 551.5828,-191 548.5828,-187 472.4172,-187 472.4172,-151 575.5828,-151 575.5828,-187"/>
<text text-anchor="middle" x="524" y="-164.8" font-family="Times,serif" font-size="14.00" fill="#000000">OwnersModule</text>
</g>
<!-- OwnerAddComponent&#45;&gt;OwnersModule -->
<g id="edge1" class="edge">
<title>OwnerAddComponent&#45;&gt;OwnersModule</title>
<path fill="none" stroke="#000000" d="M1017,-122.2921C1017,-144.2057 1017,-178 1017,-178 1017,-178 585.8278,-178 585.8278,-178"/>
<polygon fill="#000000" stroke="#000000" points="585.8279,-174.5001 575.8278,-178 585.8278,-181.5001 585.8279,-174.5001"/>
</g>
<!-- OwnerDetailComponent -->
<g id="node2" class="node">
<title>OwnerDetailComponent</title>
<polygon fill="#ffffb3" stroke="#000000" points="926.6288,-122 773.3712,-122 773.3712,-86 926.6288,-86 926.6288,-122"/>
<text text-anchor="middle" x="850" y="-99.8" font-family="Times,serif" font-size="14.00" fill="#000000">OwnerDetailComponent</text>
</g>
<!-- OwnerDetailComponent&#45;&gt;OwnersModule -->
<g id="edge2" class="edge">
<title>OwnerDetailComponent&#45;&gt;OwnersModule</title>
<path fill="none" stroke="#000000" d="M850,-122.1061C850,-141.3391 850,-169 850,-169 850,-169 585.6557,-169 585.6557,-169"/>
<polygon fill="#000000" stroke="#000000" points="585.6557,-165.5001 575.6557,-169 585.6556,-172.5001 585.6557,-165.5001"/>
</g>
<!-- OwnerEditComponent -->
<g id="node3" class="node">
<title>OwnerEditComponent</title>
<polygon fill="#ffffb3" stroke="#000000" points="755.2548,-122 612.7452,-122 612.7452,-86 755.2548,-86 755.2548,-122"/>
<text text-anchor="middle" x="684" y="-99.8" font-family="Times,serif" font-size="14.00" fill="#000000">OwnerEditComponent</text>
</g>
<!-- OwnerEditComponent&#45;&gt;OwnersModule -->
<g id="edge3" class="edge">
<title>OwnerEditComponent&#45;&gt;OwnersModule</title>
<path fill="none" stroke="#000000" d="M684,-122.027C684,-138.3976 684,-160 684,-160 684,-160 585.9474,-160 585.9474,-160"/>
<polygon fill="#000000" stroke="#000000" points="585.9474,-156.5001 575.9474,-160 585.9474,-163.5001 585.9474,-156.5001"/>
</g>
<!-- OwnerListComponent -->
<g id="node4" class="node">
<title>OwnerListComponent</title>
<polygon fill="#ffffb3" stroke="#000000" points="594.6993,-122 453.3007,-122 453.3007,-86 594.6993,-86 594.6993,-122"/>
<text text-anchor="middle" x="524" y="-99.8" font-family="Times,serif" font-size="14.00" fill="#000000">OwnerListComponent</text>
</g>
<!-- OwnerListComponent&#45;&gt;OwnersModule -->
<g id="edge4" class="edge">
<title>OwnerListComponent&#45;&gt;OwnersModule</title>
<path fill="none" stroke="#000000" d="M524,-122.1061C524,-122.1061 524,-140.991 524,-140.991"/>
<polygon fill="#000000" stroke="#000000" points="520.5001,-140.9909 524,-150.991 527.5001,-140.991 520.5001,-140.9909"/>
</g>
<!-- OwnersRoutingModule -->
<g id="node6" class="node">
<title>OwnersRoutingModule</title>
<polygon fill="#8dd3c7" stroke="#000000" points="429.2007,-122 426.2007,-126 405.2007,-126 402.2007,-122 280.7993,-122 280.7993,-86 429.2007,-86 429.2007,-122"/>
<text text-anchor="middle" x="355" y="-99.8" font-family="Times,serif" font-size="14.00" fill="#000000">OwnersRoutingModule</text>
</g>
<!-- OwnersRoutingModule&#45;&gt;OwnersModule -->
<g id="edge5" class="edge">
<title>OwnersRoutingModule&#45;&gt;OwnersModule</title>
<path fill="none" stroke="#000000" d="M355,-122.027C355,-138.3976 355,-160 355,-160 355,-160 462.3761,-160 462.3761,-160"/>
<polygon fill="#000000" stroke="#000000" points="462.3762,-163.5001 472.3761,-160 462.3761,-156.5001 462.3762,-163.5001"/>
</g>
<!-- PetsModule -->
<g id="node7" class="node">
<title>PetsModule</title>
<polygon fill="#8dd3c7" stroke="#000000" points="262.3823,-122 259.3823,-126 238.3823,-126 235.3823,-122 179.6177,-122 179.6177,-86 262.3823,-86 262.3823,-122"/>
<text text-anchor="middle" x="221" y="-99.8" font-family="Times,serif" font-size="14.00" fill="#000000">PetsModule</text>
</g>
<!-- PetsModule&#45;&gt;OwnersModule -->
<g id="edge6" class="edge">
<title>PetsModule&#45;&gt;OwnersModule</title>
<path fill="none" stroke="#000000" d="M221,-122.1061C221,-141.3391 221,-169 221,-169 221,-169 462.2567,-169 462.2567,-169"/>
<polygon fill="#000000" stroke="#000000" points="462.2568,-172.5001 472.2567,-169 462.2567,-165.5001 462.2568,-172.5001"/>
</g>
<!-- OwnerService -->
<g id="node8" class="node">
<title>OwnerService</title>
<ellipse fill="#fdb462" stroke="#000000" cx="90" cy="-104" rx="66.03" ry="18"/>
<text text-anchor="middle" x="90" y="-99.8" font-family="Times,serif" font-size="14.00" fill="#000000">OwnerService</text>
</g>
<!-- OwnerService&#45;&gt;OwnersModule -->
<g id="edge7" class="edge">
<title>OwnerService&#45;&gt;OwnersModule</title>
<path fill="none" stroke="#000000" d="M90,-122.2921C90,-144.2057 90,-178 90,-178 90,-178 462.0805,-178 462.0805,-178"/>
<polygon fill="#000000" stroke="#000000" points="462.0806,-181.5001 472.0805,-178 462.0805,-174.5001 462.0806,-181.5001"/>
</g>
</g>
</svg>
