<?xml version="1.0" encoding="UTF-8" standalone="no"?>
<!DOCTYPE svg PUBLIC "-//W3C//DTD SVG 1.1//EN"
 "http://www.w3.org/Graphics/SVG/1.1/DTD/svg11.dtd">
<!-- Generated by graphviz version 2.40.1 (20161225.0304)
 -->
<!-- Title: dependencies Pages: 1 -->
<svg width="752pt" height="284pt"
 viewBox="0.00 0.00 752.00 284.00" xmlns="http://www.w3.org/2000/svg" xmlns:xlink="http://www.w3.org/1999/xlink">
<g id="graph0" class="graph" transform="scale(1 1) rotate(0) translate(4 280)">
<title>dependencies</title>
<polygon fill="#ffffff" stroke="transparent" points="-4,4 -4,-280 748,-280 748,4 -4,4"/>
<text text-anchor="start" x="351.0091" y="-42.4" font-family="sans-serif" font-weight="bold" font-size="14.00" fill="#000000">Legend</text>
<polygon fill="#ffffb3" stroke="transparent" points="138,-10 138,-30 158,-30 158,-10 138,-10"/>
<text text-anchor="start" x="161.629" y="-15.4" font-family="sans-serif" font-size="14.00" fill="#000000"> &#160;Declarations</text>
<polygon fill="#8dd3c7" stroke="transparent" points="251,-10 251,-30 271,-30 271,-10 251,-10"/>
<text text-anchor="start" x="274.7251" y="-15.4" font-family="sans-serif" font-size="14.00" fill="#000000"> &#160;Module</text>
<polygon fill="#80b1d3" stroke="transparent" points="337,-10 337,-30 357,-30 357,-10 337,-10"/>
<text text-anchor="start" x="360.7812" y="-15.4" font-family="sans-serif" font-size="14.00" fill="#000000"> &#160;Bootstrap</text>
<polygon fill="#fdb462" stroke="transparent" points="434,-10 434,-30 454,-30 454,-10 434,-10"/>
<text text-anchor="start" x="457.6732" y="-15.4" font-family="sans-serif" font-size="14.00" fill="#000000"> &#160;Providers</text>
<polygon fill="#fb8072" stroke="transparent" points="530,-10 530,-30 550,-30 550,-10 530,-10"/>
<text text-anchor="start" x="553.7258" y="-15.4" font-family="sans-serif" font-size="14.00" fill="#000000"> &#160;Exports</text>
<g id="clust1" class="cluster">
<title>cluster_VetsModule</title>
<polygon fill="none" stroke="#000000" stroke-dasharray="1,5" points="8,-70 8,-268 736,-268 736,-70 8,-70"/>
</g>
<g id="clust2" class="cluster">
<title>cluster_VetsModule_declarations</title>
<polygon fill="none" stroke="#000000" points="302,-78 302,-130 728,-130 728,-78 302,-78"/>
</g>
<g id="clust6" class="cluster">
<title>cluster_VetsModule_imports</title>
<polygon fill="none" stroke="#000000" points="148,-78 148,-130 294,-130 294,-78 148,-78"/>
</g>
<g id="clust7" class="cluster">
<title>cluster_VetsModule_exports</title>
<polygon fill="none" stroke="#000000" points="155,-208 155,-260 592,-260 592,-208 155,-208"/>
</g>
<g id="clust9" class="cluster">
<title>cluster_VetsModule_providers</title>
<polygon fill="none" stroke="#000000" points="16,-78 16,-130 140,-130 140,-78 16,-78"/>
</g>
<!-- VetAddComponent -->
<g id="node1" class="node">
<title>VetAddComponent</title>
<polygon fill="#ffffb3" stroke="#000000" points="719.6513,-122 594.3487,-122 594.3487,-86 719.6513,-86 719.6513,-122"/>
<text text-anchor="middle" x="657" y="-99.8" font-family="Times,serif" font-size="14.00" fill="#000000">VetAddComponent</text>
</g>
<!-- VetsModule -->
<g id="node4" class="node">
<title>VetsModule</title>
<polygon fill="#8dd3c7" stroke="#000000" points="414.7065,-187 411.7065,-191 390.7065,-191 387.7065,-187 329.2935,-187 329.2935,-151 414.7065,-151 414.7065,-187"/>
<text text-anchor="middle" x="372" y="-164.8" font-family="Times,serif" font-size="14.00" fill="#000000">VetsModule</text>
</g>
<!-- VetAddComponent&#45;&gt;VetsModule -->
<g id="edge1" class="edge">
<title>VetAddComponent&#45;&gt;VetsModule</title>
<path fill="none" stroke="#000000" d="M657,-122.1061C657,-141.3391 657,-169 657,-169 657,-169 424.6674,-169 424.6674,-169"/>
<polygon fill="#000000" stroke="#000000" points="424.6674,-165.5001 414.6674,-169 424.6673,-172.5001 424.6674,-165.5001"/>
</g>
<!-- VetEditComponent -->
<g id="node2" class="node">
<title>VetEditComponent</title>
<polygon fill="#ffffb3" stroke="#000000" points="576.3781,-122 451.6219,-122 451.6219,-86 576.3781,-86 576.3781,-122"/>
<text text-anchor="middle" x="514" y="-99.8" font-family="Times,serif" font-size="14.00" fill="#000000">VetEditComponent</text>
</g>
<!-- VetEditComponent&#45;&gt;VetsModule -->
<g id="edge2" class="edge">
<title>VetEditComponent&#45;&gt;VetsModule</title>
<path fill="none" stroke="#000000" d="M535.7675,-122.027C535.7675,-138.3976 535.7675,-160 535.7675,-160 535.7675,-160 425.028,-160 425.028,-160"/>
<polygon fill="#000000" stroke="#000000" points="425.028,-156.5001 415.028,-160 425.028,-163.5001 425.028,-156.5001"/>
</g>
<!-- VetListComponent -->
<g id="node3" class="node">
<title>VetListComponent</title>
<polygon fill="#ffffb3" stroke="#000000" points="433.823,-122 310.177,-122 310.177,-86 433.823,-86 433.823,-122"/>
<text text-anchor="middle" x="372" y="-99.8" font-family="Times,serif" font-size="14.00" fill="#000000">VetListComponent</text>
</g>
<!-- VetListComponent&#45;&gt;VetsModule -->
<g id="edge3" class="edge">
<title>VetListComponent&#45;&gt;VetsModule</title>
<path fill="none" stroke="#000000" d="M372,-122.1061C372,-122.1061 372,-140.991 372,-140.991"/>
<polygon fill="#000000" stroke="#000000" points="368.5001,-140.9909 372,-150.991 375.5001,-140.991 368.5001,-140.9909"/>
</g>
<!-- VetAddComponent  -->
<g id="node6" class="node">
<title>VetAddComponent </title>
<polygon fill="#fb8072" stroke="#000000" points="583.6509,-252 454.3491,-252 454.3491,-216 583.6509,-216 583.6509,-252"/>
<text text-anchor="middle" x="519" y="-229.8" font-family="Times,serif" font-size="14.00" fill="#000000">VetAddComponent </text>
</g>
<!-- VetsModule&#45;&gt;VetAddComponent  -->
<g id="edge5" class="edge">
<title>VetsModule&#45;&gt;VetAddComponent </title>
<path fill="none" stroke="#000000" stroke-dasharray="5,2" d="M414.7076,-178C450.2606,-178 495.0961,-178 495.0961,-178 495.0961,-178 495.0961,-205.973 495.0961,-205.973"/>
<polygon fill="#000000" stroke="#000000" points="491.5962,-205.973 495.0961,-215.973 498.5962,-205.973 491.5962,-205.973"/>
</g>
<!-- VetEditComponent  -->
<g id="node7" class="node">
<title>VetEditComponent </title>
<polygon fill="#fb8072" stroke="#000000" points="436.3786,-252 307.6214,-252 307.6214,-216 436.3786,-216 436.3786,-252"/>
<text text-anchor="middle" x="372" y="-229.8" font-family="Times,serif" font-size="14.00" fill="#000000">VetEditComponent </text>
</g>
<!-- VetsModule&#45;&gt;VetEditComponent  -->
<g id="edge6" class="edge">
<title>VetsModule&#45;&gt;VetEditComponent </title>
<path fill="none" stroke="#000000" stroke-dasharray="5,2" d="M372,-187.1061C372,-187.1061 372,-205.991 372,-205.991"/>
<polygon fill="#000000" stroke="#000000" points="368.5001,-205.9909 372,-215.991 375.5001,-205.991 368.5001,-205.9909"/>
</g>
<!-- VetListComponent  -->
<g id="node8" class="node">
<title>VetListComponent </title>
<polygon fill="#fb8072" stroke="#000000" points="289.3227,-252 162.6773,-252 162.6773,-216 289.3227,-216 289.3227,-252"/>
<text text-anchor="middle" x="226" y="-229.8" font-family="Times,serif" font-size="14.00" fill="#000000">VetListComponent </text>
</g>
<!-- VetsModule&#45;&gt;VetListComponent  -->
<g id="edge7" class="edge">
<title>VetsModule&#45;&gt;VetListComponent </title>
<path fill="none" stroke="#000000" stroke-dasharray="5,2" d="M329.3478,-178C292.4445,-178 244.9709,-178 244.9709,-178 244.9709,-178 244.9709,-205.973 244.9709,-205.973"/>
<polygon fill="#000000" stroke="#000000" points="241.471,-205.973 244.9709,-215.973 248.471,-205.973 241.471,-205.973"/>
</g>
<!-- VetsRoutingModule -->
<g id="node5" class="node">
<title>VetsRoutingModule</title>
<polygon fill="#8dd3c7" stroke="#000000" points="286.3244,-122 283.3244,-126 262.3244,-126 259.3244,-122 155.6756,-122 155.6756,-86 286.3244,-86 286.3244,-122"/>
<text text-anchor="middle" x="221" y="-99.8" font-family="Times,serif" font-size="14.00" fill="#000000">VetsRoutingModule</text>
</g>
<!-- VetsRoutingModule&#45;&gt;VetsModule -->
<g id="edge4" class="edge">
<title>VetsRoutingModule&#45;&gt;VetsModule</title>
<path fill="none" stroke="#000000" d="M203.7798,-122.027C203.7798,-138.3976 203.7798,-160 203.7798,-160 203.7798,-160 319.1157,-160 319.1157,-160"/>
<polygon fill="#000000" stroke="#000000" points="319.1157,-163.5001 329.1157,-160 319.1156,-156.5001 319.1157,-163.5001"/>
</g>
<!-- VetService -->
<g id="node9" class="node">
<title>VetService</title>
<ellipse fill="#fdb462" stroke="#000000" cx="78" cy="-104" rx="53.8673" ry="18"/>
<text text-anchor="middle" x="78" y="-99.8" font-family="Times,serif" font-size="14.00" fill="#000000">VetService</text>
</g>
<!-- VetService&#45;&gt;VetsModule -->
<g id="edge8" class="edge">
<title>VetService&#45;&gt;VetsModule</title>
<path fill="none" stroke="#000000" d="M78,-122.1061C78,-141.3391 78,-169 78,-169 78,-169 319.2499,-169 319.2499,-169"/>
<polygon fill="#000000" stroke="#000000" points="319.2499,-172.5001 329.2499,-169 319.2498,-165.5001 319.2499,-172.5001"/>
</g>
</g>
</svg>
