<?xml version="1.0" encoding="UTF-8" standalone="no"?>
<!DOCTYPE svg PUBLIC "-//W3C//DTD SVG 1.1//EN"
 "http://www.w3.org/Graphics/SVG/1.1/DTD/svg11.dtd">
<!-- Generated by graphviz version 2.40.1 (20161225.0304)
 -->
<!-- Title: dependencies Pages: 1 -->
<svg width="504pt" height="284pt"
 viewBox="0.00 0.00 504.00 284.00" xmlns="http://www.w3.org/2000/svg" xmlns:xlink="http://www.w3.org/1999/xlink">
<g id="graph0" class="graph" transform="scale(1 1) rotate(0) translate(4 280)">
<title>dependencies</title>
<polygon fill="#ffffff" stroke="transparent" points="-4,4 -4,-280 500,-280 500,4 -4,4"/>
<text text-anchor="start" x="227.0091" y="-42.4" font-family="sans-serif" font-weight="bold" font-size="14.00" fill="#000000">Legend</text>
<polygon fill="#ffffb3" stroke="transparent" points="14,-10 14,-30 34,-30 34,-10 14,-10"/>
<text text-anchor="start" x="37.629" y="-15.4" font-family="sans-serif" font-size="14.00" fill="#000000"> &#160;Declarations</text>
<polygon fill="#8dd3c7" stroke="transparent" points="127,-10 127,-30 147,-30 147,-10 127,-10"/>
<text text-anchor="start" x="150.7251" y="-15.4" font-family="sans-serif" font-size="14.00" fill="#000000"> &#160;Module</text>
<polygon fill="#80b1d3" stroke="transparent" points="213,-10 213,-30 233,-30 233,-10 213,-10"/>
<text text-anchor="start" x="236.7812" y="-15.4" font-family="sans-serif" font-size="14.00" fill="#000000"> &#160;Bootstrap</text>
<polygon fill="#fdb462" stroke="transparent" points="310,-10 310,-30 330,-30 330,-10 310,-10"/>
<text text-anchor="start" x="333.6732" y="-15.4" font-family="sans-serif" font-size="14.00" fill="#000000"> &#160;Providers</text>
<polygon fill="#fb8072" stroke="transparent" points="406,-10 406,-30 426,-30 426,-10 406,-10"/>
<text text-anchor="start" x="429.7258" y="-15.4" font-family="sans-serif" font-size="14.00" fill="#000000"> &#160;Exports</text>
<g id="clust1" class="cluster">
<title>cluster_PartsModule</title>
<polygon fill="none" stroke="#000000" stroke-dasharray="1,5" points="69.5,-70 69.5,-268 426.5,-268 426.5,-70 69.5,-70"/>
</g>
<g id="clust2" class="cluster">
<title>cluster_PartsModule_declarations</title>
<polygon fill="none" stroke="#000000" points="81.5,-78 81.5,-130 415.5,-130 415.5,-78 81.5,-78"/>
</g>
<g id="clust6" class="cluster">
<title>cluster_PartsModule_exports</title>
<polygon fill="none" stroke="#000000" points="77.5,-208 77.5,-260 418.5,-260 418.5,-208 77.5,-208"/>
</g>
<!-- PageNotFoundComponent -->
<g id="node1" class="node">
<title>PageNotFoundComponent</title>
<polygon fill="#ffffb3" stroke="#000000" points="407.3243,-122 241.6757,-122 241.6757,-86 407.3243,-86 407.3243,-122"/>
<text text-anchor="middle" x="324.5" y="-99.8" font-family="Times,serif" font-size="14.00" fill="#000000">PageNotFoundComponent</text>
</g>
<!-- PartsModule -->
<g id="node3" class="node">
<title>PartsModule</title>
<polygon fill="#8dd3c7" stroke="#000000" points="201.044,-187 198.044,-191 177.044,-191 174.044,-187 113.956,-187 113.956,-151 201.044,-151 201.044,-187"/>
<text text-anchor="middle" x="157.5" y="-164.8" font-family="Times,serif" font-size="14.00" fill="#000000">PartsModule</text>
</g>
<!-- PageNotFoundComponent&#45;&gt;PartsModule -->
<g id="edge1" class="edge">
<title>PageNotFoundComponent&#45;&gt;PartsModule</title>
<path fill="none" stroke="#000000" d="M352.1373,-122.0225C352.1373,-139.3734 352.1373,-163 352.1373,-163 352.1373,-163 211.1804,-163 211.1804,-163"/>
<polygon fill="#000000" stroke="#000000" points="211.1805,-159.5001 201.1804,-163 211.1804,-166.5001 211.1805,-159.5001"/>
</g>
<!-- WelcomeComponent -->
<g id="node2" class="node">
<title>WelcomeComponent</title>
<polygon fill="#ffffb3" stroke="#000000" points="223.972,-122 89.028,-122 89.028,-86 223.972,-86 223.972,-122"/>
<text text-anchor="middle" x="156.5" y="-99.8" font-family="Times,serif" font-size="14.00" fill="#000000">WelcomeComponent</text>
</g>
<!-- WelcomeComponent&#45;&gt;PartsModule -->
<g id="edge2" class="edge">
<title>WelcomeComponent&#45;&gt;PartsModule</title>
<path fill="none" stroke="#000000" d="M157.5,-122.1061C157.5,-122.1061 157.5,-140.991 157.5,-140.991"/>
<polygon fill="#000000" stroke="#000000" points="154.0001,-140.9909 157.5,-150.991 161.0001,-140.991 154.0001,-140.9909"/>
</g>
<!-- PageNotFoundComponent  -->
<g id="node4" class="node">
<title>PageNotFoundComponent </title>
<polygon fill="#fb8072" stroke="#000000" points="410.8241,-252 242.1759,-252 242.1759,-216 410.8241,-216 410.8241,-252"/>
<text text-anchor="middle" x="326.5" y="-229.8" font-family="Times,serif" font-size="14.00" fill="#000000">PageNotFoundComponent </text>
</g>
<!-- PartsModule&#45;&gt;PageNotFoundComponent  -->
<g id="edge3" class="edge">
<title>PartsModule&#45;&gt;PageNotFoundComponent </title>
<path fill="none" stroke="#000000" stroke-dasharray="5,2" d="M201.2913,-175C242.2351,-175 297.1127,-175 297.1127,-175 297.1127,-175 297.1127,-205.9775 297.1127,-205.9775"/>
<polygon fill="#000000" stroke="#000000" points="293.6128,-205.9774 297.1127,-215.9775 300.6128,-205.9775 293.6128,-205.9774"/>
</g>
<!-- WelcomeComponent  -->
<g id="node5" class="node">
<title>WelcomeComponent </title>
<polygon fill="#fb8072" stroke="#000000" points="223.9728,-252 85.0272,-252 85.0272,-216 223.9728,-216 223.9728,-252"/>
<text text-anchor="middle" x="154.5" y="-229.8" font-family="Times,serif" font-size="14.00" fill="#000000">WelcomeComponent </text>
</g>
<!-- PartsModule&#45;&gt;WelcomeComponent  -->
<g id="edge4" class="edge">
<title>PartsModule&#45;&gt;WelcomeComponent </title>
<path fill="none" stroke="#000000" stroke-dasharray="5,2" d="M157.5,-187.1061C157.5,-187.1061 157.5,-205.991 157.5,-205.991"/>
<polygon fill="#000000" stroke="#000000" points="154.0001,-205.9909 157.5,-215.991 161.0001,-205.991 154.0001,-205.9909"/>
</g>
</g>
</svg>
